<?xml version="1.0" encoding="UTF-8" standalone="no"?>
<svg
   xmlns:dc="http://purl.org/dc/elements/1.1/"
   xmlns:cc="http://creativecommons.org/ns#"
   xmlns:rdf="http://www.w3.org/1999/02/22-rdf-syntax-ns#"
   xmlns:svg="http://www.w3.org/2000/svg"
   xmlns="http://www.w3.org/2000/svg"
   xmlns:sodipodi="http://sodipodi.sourceforge.net/DTD/sodipodi-0.dtd"
   xmlns:inkscape="http://www.inkscape.org/namespaces/inkscape"
   version="1.1"
   id="svg2"
   xml:space="preserve"
   width="1122.52"
   height="793.70135"
   viewBox="0 0 1122.52 793.70135"
   sodipodi:docname="icone.ai"><metadata
     id="metadata8"><rdf:RDF><cc:Work
         rdf:about=""><dc:format>image/svg+xml</dc:format><dc:type
           rdf:resource="http://purl.org/dc/dcmitype/StillImage" /></cc:Work></rdf:RDF></metadata><defs
     id="defs6"><clipPath
       clipPathUnits="userSpaceOnUse"
       id="clipPath18"><path
         d="M 0,595.276 H 841.89 V 0 H 0 Z"
         id="path16" /></clipPath></defs><sodipodi:namedview
     pagecolor="#ffffff"
     bordercolor="#666666"
     borderopacity="1"
     objecttolerance="10"
     gridtolerance="10"
     guidetolerance="10"
     inkscape:pageopacity="0"
     inkscape:pageshadow="2"
     inkscape:window-width="640"
     inkscape:window-height="480"
     id="namedview4" /><g
     id="g10"
     inkscape:groupmode="layer"
     inkscape:label="icone"
     transform="matrix(1.3333333,0,0,-1.3333333,0,793.70133)"><g
       id="g12"><g
         id="g14"
         clip-path="url(#clipPath18)"><g
           id="g20"
           transform="translate(739,297.6377)"><path
             d="m 0,0 c 0,-164.305 -133.195,-297.5 -297.5,-297.5 -164.305,0 -297.5,133.195 -297.5,297.5 0,164.305 133.195,297.5 297.5,297.5 C -133.195,297.5 0,164.305 0,0"
             style="fill:#26a69a;fill-opacity:1;fill-rule:nonzero;stroke:none"
             id="path22" /></g><g
           id="g24"
           transform="translate(602.9902,328.2124)"><path
             d="m 0,0 c -1.89,-8.895 -3.865,-17.773 -5.652,-26.688 -6.982,-34.819 -13.8,-69.671 -20.883,-104.469 -4.68,-22.991 -22.766,-37.516 -46.405,-37.534 -55.123,-0.04 -110.25,0.377 -165.368,-0.192 -24.091,-0.249 -44.64,16.821 -47.832,42.195 -4.211,33.479 -9.641,66.804 -14.538,100.196 -3.195,21.794 -6.396,43.586 -9.544,65.387 -0.823,5.707 -1.761,6.643 -7.422,6.649 -10.195,0.011 -20.393,-0.134 -30.583,0.078 -8.008,0.166 -14.223,5.669 -15.758,13.402 -1.39,7.001 2.435,14.513 9.116,17.609 1.587,0.735 3.381,1.437 5.083,1.447 12.798,0.075 25.657,0.745 38.379,-0.258 18.004,-1.419 30.558,-14.236 33.196,-32.107 1.123,-7.615 2.468,-15.202 3.352,-22.844 0.338,-2.932 1.388,-3.606 4.182,-3.601 46.824,0.083 93.65,0.059 140.475,0.059 36.392,0 72.787,-0.167 109.178,0.108 C -10.88,19.514 -3.523,16.379 0,6.403 Z"
             style="fill:#ffffff;fill-opacity:1;fill-rule:nonzero;stroke:none"
             id="path26" /></g><g
           id="g28"
           transform="translate(514.6182,59.2754)"><path
             d="M 0,0 C -23.373,0.066 -42.491,19.275 -42.418,42.619 -42.345,66.008 -23.154,85.107 0.214,85.05 23.297,84.992 42.724,65.461 42.735,42.301 42.746,19.067 23.415,-0.066 0,0"
             style="fill:#ffffff;fill-opacity:1;fill-rule:nonzero;stroke:none"
             id="path30" /></g><g
           id="g32"
           transform="translate(410.4546,102.0068)"><path
             d="m 0,0 c 0.114,-22.759 -18.727,-42.128 -41.123,-42.276 -22.832,-0.151 -41.691,18.533 -41.787,41.396 -0.097,23.339 18.558,42.943 41.096,43.188 C -19.085,42.554 -0.118,23.362 0,0"
             style="fill:#ffffff;fill-opacity:1;fill-rule:nonzero;stroke:none"
             id="path34" /></g><g
           id="g36"
           transform="translate(433.9512,436.6177)"><path
             d="m 0,0 c -15.205,0 -29.872,-0.003 -44.54,0.001 -4.296,0.002 -8.599,-0.117 -12.889,0.066 -7.445,0.317 -13.245,6.269 -13.513,13.639 -0.262,7.203 4.93,13.37 12.225,14.424 1.645,0.238 3.326,0.31 4.99,0.313 16.353,0.022 32.706,0.013 49.058,0.013 H 0 v 4.129 c 0,17.069 -0.027,34.137 0.014,51.206 0.017,7.631 3.934,13.236 10.318,15.018 9.481,2.647 18.099,-4.15 18.164,-14.564 0.108,-16.949 0.031,-33.899 0.032,-50.848 v -4.941 h 4.573 c 16.83,0 33.66,0.034 50.49,-0.017 7.587,-0.022 12.824,-3.375 15.006,-9.372 C 102.013,9.675 95.286,0.114 84.979,0.039 68.031,-0.083 51.081,0.002 34.132,0 32.467,0 30.801,0 28.528,0 V -3.864 C 28.527,-21.171 28.579,-38.479 28.504,-55.786 28.466,-64.417 22.829,-70.625 15.027,-70.943 6.292,-71.299 0.052,-64.977 0.019,-55.523 -0.043,-38.455 0,-21.386 0,-4.318 Z"
             style="fill:#ffffff;fill-opacity:1;fill-rule:nonzero;stroke:none"
             id="path38" /></g></g></g></g></svg>
